<svg width="66" height="73" viewBox="0 0 66 73" fill="none" xmlns="http://www.w3.org/2000/svg">
<path fill-rule="evenodd" clip-rule="evenodd" d="M33.0865 15.6965C29.8713 15.6965 26.7879 16.9737 24.5144 19.2471C22.241 21.5206 20.9637 24.6041 20.9637 27.8192C20.9637 31.0344 22.241 34.1179 24.5144 36.3913C26.7879 38.6648 29.8713 39.942 33.0865 39.942C36.3017 39.942 39.3851 38.6648 41.6586 36.3913C43.9321 34.1179 45.2093 31.0344 45.2093 27.8192C45.2093 24.6041 43.9321 21.5206 41.6586 19.2471C39.3851 16.9737 36.3017 15.6965 33.0865 15.6965ZM26.5589 27.8192C26.5589 26.088 27.2466 24.4277 28.4708 23.2035C29.6949 21.9793 31.3553 21.2916 33.0865 21.2916C34.8177 21.2916 36.4781 21.9793 37.7023 23.2035C38.9264 24.4277 39.6142 26.088 39.6142 27.8192C39.6142 29.5505 38.9264 31.2108 37.7023 32.435C36.4781 33.6592 34.8177 34.3469 33.0865 34.3469C31.3553 34.3469 29.6949 33.6592 28.4708 32.435C27.2466 31.2108 26.5589 29.5505 26.5589 27.8192Z" fill="white"/>
<path fill-rule="evenodd" clip-rule="evenodd" d="M33.0865 0.776154C28.2089 0.775819 23.4219 2.09471 19.2327 4.59312C15.0435 7.09154 11.608 10.6765 9.29013 14.9682C6.97223 19.2599 5.85823 24.0986 6.06612 28.9718C6.27401 33.8451 7.79604 38.5713 10.471 42.6501L0.82129 59.3608C0.55341 59.8262 0.425129 60.3589 0.451763 60.8952C0.478396 61.4315 0.65882 61.9488 0.971491 62.3854C1.28416 62.822 1.71587 63.1593 2.21506 63.3572C2.71426 63.555 3.25986 63.605 3.78671 63.5012L13.5371 61.584L16.7487 70.9838C16.9218 71.493 17.2381 71.9416 17.6595 72.2757C18.081 72.6099 18.5899 72.8155 19.1252 72.8678C19.6605 72.9202 20.1996 72.8171 20.6778 72.5709C21.1561 72.3248 21.5532 71.946 21.8217 71.4799L31.4453 54.8139C32.5384 54.8798 33.6346 54.8798 34.7277 54.8139L44.3514 71.4799C44.6201 71.9459 45.0176 72.3245 45.496 72.5704C45.9745 72.8162 46.5137 72.919 47.049 72.8662C47.5844 72.8135 48.0932 72.6075 48.5145 72.273C48.9357 71.9384 49.2516 71.4895 49.4243 70.98L52.6247 61.5579L62.3826 63.4975C62.9097 63.6022 63.4558 63.5529 63.9557 63.3554C64.4555 63.1579 64.8879 62.8206 65.201 62.3839C65.5142 61.9471 65.695 61.4294 65.7217 60.8927C65.7484 60.3559 65.62 59.8228 65.3517 59.3571L55.7057 42.6501C58.3809 38.5711 59.9029 33.8445 60.1107 28.9709C60.3184 24.0974 59.2041 19.2584 56.8857 14.9665C54.5674 10.6747 51.1314 7.08983 46.9416 4.59169C42.7519 2.09354 37.9645 0.775146 33.0865 0.776154ZM11.6385 27.8193C11.6385 22.1309 13.8982 16.6755 17.9205 12.6532C21.9428 8.63097 27.3982 6.37128 33.0865 6.37128C38.7749 6.37128 44.2302 8.63097 48.2525 12.6532C52.2748 16.6755 54.5345 22.1309 54.5345 27.8193C54.5345 33.5076 52.2748 38.963 48.2525 42.9853C44.2302 47.0075 38.7749 49.2672 33.0865 49.2672C27.3982 49.2672 21.9428 47.0075 17.9205 42.9853C13.8982 38.963 11.6385 33.5076 11.6385 27.8193ZM25.5667 53.803C21.3238 52.5743 17.447 50.324 14.2757 47.2493L8.74772 56.8244L14.8539 55.6233C15.5174 55.4931 16.2057 55.6076 16.7913 55.9457C17.3769 56.2837 17.8203 56.8225 18.0394 57.4622L20.0536 63.352L25.5667 53.803ZM46.112 63.3371L40.6064 53.803C44.8491 52.5741 48.7259 50.3239 51.8973 47.2493L57.4178 56.8095L51.308 55.5935C50.6424 55.4617 49.9515 55.5763 49.3641 55.9159C48.7767 56.2556 48.3328 56.7972 48.115 57.4398L46.112 63.3371Z" fill="white"/>
</svg>
