<svg width="75" height="78" viewBox="0 0 75 78" fill="none" xmlns="http://www.w3.org/2000/svg">
<g filter="url(#filter0_d_68_68)">
<path d="M51.5092 63.4524L45.5205 57.4636L42.2602 60.7239L51.5092 69.973L70.0074 51.4748L66.7471 48.2145L51.5092 63.4524Z" fill="white"/>
<path d="M58.446 12.1662H51.5092V9.85394C51.5056 8.62856 51.0172 7.45442 50.1507 6.58794C49.2842 5.72146 48.1101 5.23306 46.8847 5.2294H28.3865C27.1611 5.23306 25.987 5.72146 25.1205 6.58794C24.254 7.45442 23.7656 8.62856 23.762 9.85394V12.1662H16.8252C15.5998 12.1699 14.4256 12.6583 13.5592 13.5248C12.6927 14.3912 12.2043 15.5654 12.2006 16.7908V65.3484C12.2043 66.5738 12.6927 67.748 13.5592 68.6144C14.4256 69.4809 15.5998 69.9693 16.8252 69.973H37.6356V65.3484H16.8252V16.7908H23.762V23.7276H51.5092V16.7908H58.446V42.2257H63.0706V16.7908C63.0669 15.5654 62.5785 14.3912 61.712 13.5248C60.8456 12.6583 59.6714 12.1699 58.446 12.1662ZM46.8847 19.103H28.3865V9.85394H46.8847V19.103Z" fill="white"/>
</g>
<defs>
<filter id="filter0_d_68_68" x="-3.36072" y="0.604858" width="81.9927" height="81.9927" filterUnits="userSpaceOnUse" color-interpolation-filters="sRGB">
<feFlood flood-opacity="0" result="BackgroundImageFix"/>
<feColorMatrix in="SourceAlpha" type="matrix" values="0 0 0 0 0 0 0 0 0 0 0 0 0 0 0 0 0 0 127 0" result="hardAlpha"/>
<feOffset dy="4"/>
<feGaussianBlur stdDeviation="2"/>
<feComposite in2="hardAlpha" operator="out"/>
<feColorMatrix type="matrix" values="0 0 0 0 0 0 0 0 0 0 0 0 0 0 0 0 0 0 0.25 0"/>
<feBlend mode="normal" in2="BackgroundImageFix" result="effect1_dropShadow_68_68"/>
<feBlend mode="normal" in="SourceGraphic" in2="effect1_dropShadow_68_68" result="shape"/>
</filter>
</defs>
</svg>
