<svg width="50" height="70" viewBox="0 0 50 70" fill="none" xmlns="http://www.w3.org/2000/svg">
<path d="M41.5572 0.354919H8.43102C6.23412 0.486884 4.17802 1.48034 2.70935 3.11948C1.24068 4.75862 0.478075 6.91105 0.587189 9.1092V61.1796C0.478075 63.3778 1.24068 65.5302 2.70935 67.1693C4.17802 68.8085 6.23412 69.8019 8.43102 69.9339H41.5572C43.7541 69.8019 45.8102 68.8085 47.2789 67.1693C48.7475 65.5302 49.5101 63.3778 49.401 61.1796V9.1092C49.5101 6.91105 48.7475 4.75862 47.2789 3.11948C45.8102 1.48034 43.7541 0.486884 41.5572 0.354919ZM45.8993 61.1796C46.0062 62.4491 45.6115 63.7099 44.7998 64.6917C43.9881 65.6736 42.8241 66.2984 41.5572 66.4322H8.43102C7.16414 66.2984 6.00009 65.6736 5.18842 64.6917C4.37674 63.7099 3.98203 62.4491 4.0889 61.1796V9.1092C3.98203 7.83976 4.37674 6.57897 5.18842 5.5971C6.00009 4.61523 7.16414 3.99043 8.43102 3.85663H13.7886V5.6425C13.7886 6.57121 14.1576 7.46189 14.8143 8.11859C15.471 8.77528 16.3616 9.14421 17.2903 9.14421H32.6979C33.6266 9.14421 34.5173 8.77528 35.174 8.11859C35.8307 7.46189 36.1996 6.57121 36.1996 5.6425V3.85663H41.5572C42.8241 3.99043 43.9881 4.61523 44.7998 5.5971C45.6115 6.57897 46.0062 7.83976 45.8993 9.1092V61.1796Z" fill="white"/>
</svg>
